<svg id="ic_refresh" xmlns="http://www.w3.org/2000/svg" width="28" height="28" viewBox="0 0 28 28">
  <rect id="Base" width="28" height="28" fill="none"/>
  <path id="Icon" d="M299.731-60.807A7.428,7.428,0,0,0,294.457-63,7.457,7.457,0,0,0,287-55.533a7.457,7.457,0,0,0,7.457,7.467,7.45,7.45,0,0,0,7.215-5.6h-1.941a5.592,5.592,0,0,1-5.273,3.733,5.6,5.6,0,0,1-5.6-5.6,5.6,5.6,0,0,1,5.6-5.6,5.521,5.521,0,0,1,3.939,1.661l-3.005,3.005h6.533V-63l-2.193,2.193Z" transform="translate(-280.467 69.533)" fill="#d8d8d8" fill-rule="evenodd"/>
</svg>
